# xmcd
#
# Track frame offsets: 
#        150
#        13352
#        26872
#        42823
#        59588
#        67913
#        77199
#        83560
#        95935
#        106660
#        111855
#        137779
#        144604
#        155704
#        186525
#        191925
#
# Disc length: 2657 seconds
#
# Revision: 0
# Processed by: cddbd v1.5.2PL0 Copyright (c) Steve Scherf et al.
# Submitted via: ExactAudioCopy v0.99pb3
#
DISCID=ee0a5f10
DTITLE=Jack Thompson - Banjo Patterson
DYEAR=1900
DGENRE=Ballad
TTITLE0=Clancy of the Overflow
TTITLE1=Mulga Bill's Bicycle
TTITLE2=The Geebung Polo Club
TTITLE3=The Man From Ironbark
TTITLE4=The Daylight is Dying
TTITLE5=Australian Scenery
TTITLE6=Sunrise on the Coast
TTITLE7=The Travelling Post Office
TTITLE8=By The Grey Gulf water
TTITLE9=Flying Squirrels
TTITLE10=With the Cattle
TTITLE11=Pioneers
TTITLE12=Black Harry's Team
TTITLE13=The Man From Snowy River
TTITLE14=Moving On
TTITLE15=Behind the Scenes
EXTD=
EXTT0=
EXTT1=
EXTT2=
EXTT3=
EXTT4=
EXTT5=
EXTT6=
EXTT7=
EXTT8=
EXTT9=
EXTT10=
EXTT11=
EXTT12=
EXTT13=
EXTT14=
EXTT15=
PLAYORDER=
